<svg width="201" height="28" viewBox="0 0 201 28" fill="none" xmlns="http://www.w3.org/2000/svg">
<path d="M24.7812 1.26562C24.4531 2.01563 24.1602 2.67188 23.9023 3.23438C23.6445 3.79688 23.4219 4.27734 23.2344 4.67578C23.0234 5.12109 22.8477 5.51953 22.707 5.87109C22.5898 6.12891 22.4375 6.48047 22.25 6.92578C22.0625 7.32422 21.8281 7.85156 21.5469 8.50781C21.2891 9.14062 20.9492 9.96094 20.5273 10.9688C20.3164 10.1016 20.0586 9.33984 19.7539 8.68359C19.4492 8.02734 19.1211 7.45312 18.7695 6.96094C18.418 6.46875 18.043 6.07031 17.6445 5.76562C17.2695 5.4375 16.8945 5.16797 16.5195 4.95703C15.6523 4.48828 14.7383 4.23047 13.7773 4.18359C12.5117 4.25391 11.5156 4.46484 10.7891 4.81641C10.0859 5.14453 9.57031 5.53125 9.24219 5.97656C8.91406 6.39844 8.73828 6.84375 8.71484 7.3125C8.69141 7.75781 8.75 8.13281 8.89062 8.4375C9.00781 8.71875 9.41797 9.04688 10.1211 9.42188C10.8477 9.79688 11.7148 10.2305 12.7227 10.7227C13.7539 11.1914 14.8555 11.7305 16.0273 12.3398C17.1992 12.9258 18.2773 13.582 19.2617 14.3086C20.2695 15.0117 21.1133 15.7852 21.793 16.6289C22.4961 17.4492 22.8828 18.3281 22.9531 19.2656C23.0234 20.4609 23.0117 21.5391 22.918 22.5C22.8242 23.4609 22.4961 24.2812 21.9336 24.9609C21.3711 25.6406 20.4922 26.1797 19.2969 26.5781C18.125 26.9766 16.4961 27.2227 14.4102 27.3164C12.2539 27.4102 10.4844 27.293 9.10156 26.9648C7.71875 26.6367 6.59375 26.1914 5.72656 25.6289C4.88281 25.0664 4.25 24.4453 3.82812 23.7656C3.42969 23.0859 3.13672 22.4414 2.94922 21.832C2.76172 21.1992 2.63281 20.6602 2.5625 20.2148C2.49219 19.7461 2.375 19.4648 2.21094 19.3711C2.02344 19.2539 1.83594 19.1484 1.64844 19.0547C1.48438 18.9609 1.30859 18.8789 1.12109 18.8086C0.933594 18.7148 0.746094 18.6328 0.558594 18.5625L10.7891 16.9102C10.2031 17.3789 9.74609 17.8125 9.41797 18.2109C9.11328 18.6094 8.87891 18.9609 8.71484 19.2656C8.52734 19.6172 8.39844 19.9453 8.32812 20.25C8.28125 20.5781 8.38672 20.9883 8.64453 21.4805C8.90234 21.9727 9.25391 22.4531 9.69922 22.9219C10.168 23.3672 10.707 23.7422 11.3164 24.0469C11.9258 24.3516 12.5586 24.4805 13.2148 24.4336C14.0352 24.3633 14.7031 24.1641 15.2188 23.8359C15.7344 23.4844 16.1211 23.0508 16.3789 22.5352C16.6602 22.0195 16.8242 21.457 16.8711 20.8477C16.918 20.2383 16.8594 19.6406 16.6953 19.0547C16.5547 18.4453 16.3203 17.8828 15.9922 17.3672C15.6641 16.8281 15.2773 16.3828 14.832 16.0312C14.4336 15.75 13.8125 15.4805 12.9688 15.2227C12.1484 14.9648 11.2227 14.6836 10.1914 14.3789C9.18359 14.0742 8.14062 13.7227 7.0625 13.3242C6.00781 12.9258 5.04688 12.4336 4.17969 11.8477C3.33594 11.2617 2.65625 10.5703 2.14062 9.77344C1.64844 8.97656 1.46094 8.01562 1.57812 6.89062C1.67188 5.92969 1.97656 5.13281 2.49219 4.5C3.03125 3.84375 3.69922 3.32812 4.49609 2.95312C5.31641 2.55469 6.21875 2.26172 7.20312 2.07422C8.21094 1.88672 9.23047 1.78125 10.2617 1.75781C11.3164 1.71094 12.3477 1.72266 13.3555 1.79297C14.3867 1.86328 15.3125 1.94531 16.1328 2.03906C16.9531 2.13281 17.6445 2.22656 18.207 2.32031C18.793 2.39062 19.1562 2.4375 19.2969 2.46094C19.9062 2.50781 20.5156 2.49609 21.125 2.42578C21.6641 2.37891 22.25 2.27344 22.8828 2.10938C23.5391 1.92187 24.1719 1.64062 24.7812 1.26562ZM23.9023 1.33594C25.4727 1.52344 26.832 1.66406 27.9805 1.75781C29.1289 1.82812 30.0781 1.88672 30.8281 1.93359C31.6953 1.98047 32.4219 1.99219 33.0078 1.96875C33.6172 1.94531 34.4492 1.88672 35.5039 1.79297C36.3945 1.72266 37.5664 1.62891 39.0195 1.51172C40.4727 1.37109 42.2891 1.18359 44.4688 0.949219C44.4922 1.48828 44.5039 2.01563 44.5039 2.53125C44.5273 3.02344 44.5508 3.45703 44.5742 3.83203C44.5977 4.27734 44.6094 4.6875 44.6094 5.0625C44.6094 5.46094 44.5859 5.96484 44.5391 6.57422C44.4922 7.08984 44.4102 7.74609 44.293 8.54297C44.1992 9.31641 44.0469 10.2422 43.8359 11.3203C43.5078 10.0547 43.1914 9.03516 42.8867 8.26172C42.582 7.46484 42.3008 6.83203 42.043 6.36328C41.7617 5.82422 41.4805 5.41406 41.1992 5.13281C40.8945 4.92188 40.5312 4.74609 40.1094 4.60547C39.7344 4.48828 39.2539 4.39453 38.668 4.32422C38.1055 4.25391 37.4375 4.26563 36.6641 4.35938C36.5469 7.45312 36.4648 9.96094 36.418 11.8828C36.3711 13.8047 36.3359 15.3047 36.3125 16.3828C36.2891 17.6719 36.2773 18.5977 36.2773 19.1602C36.3008 19.957 36.4297 20.7422 36.6641 21.5156C36.8516 22.1719 37.1562 22.8516 37.5781 23.5547C38 24.2578 38.6094 24.8789 39.4062 25.418H35.1172C34.7188 25.418 34.2266 25.4414 33.6406 25.4883C33.1484 25.5352 32.5156 25.582 31.7422 25.6289C30.9922 25.6758 30.1133 25.7578 29.1055 25.875C29.457 25.2656 29.7383 24.7148 29.9492 24.2227C30.1602 23.7305 30.3242 23.3086 30.4414 22.957C30.582 22.5352 30.6875 22.1602 30.7578 21.832C30.7812 21.3633 30.8398 20.4141 30.9336 18.9844C30.957 18.3984 30.9805 17.6719 31.0039 16.8047C31.0508 15.9375 31.0977 14.9062 31.1445 13.7109C31.2148 12.5156 31.2734 11.1445 31.3203 9.59766C31.3906 8.02734 31.4609 6.25781 31.5312 4.28906C31.1094 4.17187 30.7109 4.18359 30.3359 4.32422C29.9609 4.44141 29.6328 4.59375 29.3516 4.78125C29.0234 5.01562 28.707 5.29687 28.4023 5.625C28.0977 6.02344 27.7578 6.53906 27.3828 7.17188C27.0547 7.71094 26.6797 8.42578 26.2578 9.31641C25.8359 10.1836 25.3555 11.2617 24.8164 12.5508C24.6992 11.1914 24.6172 10.0781 24.5703 9.21094C24.5234 8.32031 24.4883 7.62891 24.4648 7.13672C24.4414 6.55078 24.4297 6.11719 24.4297 5.83594C24.4297 5.57812 24.4062 5.23828 24.3594 4.81641C24.3125 4.46484 24.2539 4.00781 24.1836 3.44531C24.1133 2.85938 24.0195 2.15625 23.9023 1.33594ZM56.7383 0.492188C58.0039 0.539063 59.2812 0.773438 60.5703 1.19531C61.8828 1.59375 63.0898 2.25 64.1914 3.16406C65.293 4.05469 66.2305 5.21484 67.0039 6.64453C67.7773 8.05078 68.2578 9.77344 68.4453 11.8125C68.6094 13.4766 68.3984 15.1289 67.8125 16.7695C67.25 18.3867 66.4648 19.875 65.457 21.2344C64.4492 22.5938 63.2891 23.7539 61.9766 24.7148C60.6641 25.6523 59.3516 26.2734 58.0391 26.5781C57.2422 26.7656 56.3633 26.7891 55.4023 26.6484C54.4648 26.4844 53.5039 26.1914 52.5195 25.7695C51.5586 25.3242 50.6094 24.7617 49.6719 24.082C48.7578 23.4023 47.9258 22.6289 47.1758 21.7617C46.4258 20.8711 45.793 19.9102 45.2773 18.8789C44.7852 17.8477 44.4805 16.7695 44.3633 15.6445C44.2461 14.707 44.2344 13.6758 44.3281 12.5508C44.4453 11.4023 44.668 10.2656 44.9961 9.14062C45.3477 7.99219 45.8281 6.89062 46.4375 5.83594C47.0703 4.75781 47.8672 3.82031 48.8281 3.02344C49.7891 2.20312 50.9141 1.57031 52.2031 1.125C53.5156 0.65625 55.0273 0.445312 56.7383 0.492188ZM50.4453 14.7305C50.1172 17.2383 50.3516 19.2539 51.1484 20.7773C51.9688 22.3008 53.1992 23.2266 54.8398 23.5547C55.6367 23.7188 56.3984 23.5547 57.125 23.0625C57.875 22.5469 58.5547 21.8086 59.1641 20.8477C59.7734 19.8867 60.3008 18.7617 60.7461 17.4727C61.1914 16.1836 61.5195 14.8359 61.7305 13.4297C61.9414 12.0234 61.9531 10.7578 61.7656 9.63281C61.6016 8.48438 61.3086 7.51172 60.8867 6.71484C60.4648 5.89453 59.9492 5.26172 59.3398 4.81641C58.7539 4.37109 58.1445 4.125 57.5117 4.07812C56.4102 4.00781 55.4492 4.30078 54.6289 4.95703C53.8086 5.58984 53.1172 6.42187 52.5547 7.45312C51.9922 8.48438 51.5352 9.64453 51.1836 10.9336C50.8555 12.2227 50.6094 13.4883 50.4453 14.7305ZM67.9531 1.33594C68.7031 1.45313 69.3828 1.55859 69.9922 1.65234C70.6016 1.72266 71.1289 1.78125 71.5742 1.82812C72.0898 1.89844 72.5469 1.95703 72.9453 2.00391C73.4375 2.07422 74.1758 1.99219 75.1602 1.75781C76.1445 1.5 77.2227 1.26562 78.3945 1.05469C79.5898 0.820313 80.8086 0.691406 82.0508 0.667969C83.293 0.621094 84.4297 0.84375 85.4609 1.33594C86.4922 1.82812 87.3359 2.32031 87.9922 2.8125C88.6484 3.30469 89.1641 3.83203 89.5391 4.39453C89.9375 4.93359 90.2188 5.50781 90.3828 6.11719C90.5469 6.72656 90.6406 7.39453 90.6641 8.12109C90.6406 9.19922 90.3828 10.2422 89.8906 11.25C89.6797 11.6719 89.3984 12.1172 89.0469 12.5859C88.7188 13.0312 88.3086 13.4648 87.8164 13.8867C87.3242 14.3086 86.7383 14.707 86.0586 15.082C85.4023 15.457 84.6289 15.7852 83.7383 16.0664C84.6055 16.3242 85.3203 16.6289 85.8828 16.9805C86.4688 17.332 86.9375 17.6602 87.2891 17.9648C87.7109 18.3398 88.0273 18.7031 88.2383 19.0547C88.4961 19.5469 88.6719 19.9688 88.7656 20.3203C88.8594 20.6719 88.918 21.0117 88.9414 21.3398C88.9883 21.6445 89.0469 21.9609 89.1172 22.2891C89.1875 22.6172 89.3398 22.9922 89.5742 23.4141C89.7617 23.7422 89.9844 24.082 90.2422 24.4336C90.4766 24.7383 90.7461 25.0664 91.0508 25.418C91.3789 25.7695 91.7773 26.1094 92.2461 26.4375C91.5898 26.4609 90.9805 26.4727 90.418 26.4727C89.8789 26.4727 89.4102 26.4727 89.0117 26.4727C88.543 26.4727 88.0977 26.4609 87.6758 26.4375C87.2539 26.4141 86.7266 26.4023 86.0938 26.4023C85.5547 26.4023 84.8633 26.4023 84.0195 26.4023C83.1992 26.4023 82.2031 26.4141 81.0312 26.4375C81.5469 26.0391 81.9688 25.6406 82.2969 25.2422C82.625 24.8438 82.8828 24.4805 83.0703 24.1523C83.2812 23.7773 83.4336 23.4141 83.5273 23.0625C83.6445 22.4297 83.6562 21.7734 83.5625 21.0938C83.4922 20.5078 83.3047 19.8633 83 19.1602C82.6953 18.4336 82.2031 17.707 81.5234 16.9805C80.8438 17.0977 80.2695 17.1914 79.8008 17.2617C79.3555 17.3086 78.9688 17.3555 78.6406 17.4023C78.2656 17.4492 77.9609 17.4844 77.7266 17.5078C77.5156 17.5312 77.2812 17.5547 77.0234 17.5781C76.8125 17.6016 76.5781 17.6367 76.3203 17.6836C76.0859 17.707 75.8633 17.7422 75.6523 17.7891C75.6055 18.7969 75.6055 19.6758 75.6523 20.4258C75.6992 21.1523 75.7578 21.7617 75.8281 22.2539C75.9219 22.8398 76.0273 23.3438 76.1445 23.7656C76.2617 24.1875 76.4258 24.5977 76.6367 24.9961C76.8008 25.3242 77.0117 25.6758 77.2695 26.0508C77.5273 26.4023 77.8203 26.6953 78.1484 26.9297C77.5391 26.9297 76.9531 26.9297 76.3906 26.9297C75.8516 26.9297 75.3594 26.918 74.9141 26.8945C74.3984 26.8945 73.9062 26.8828 73.4375 26.8594C72.9688 26.8359 72.4414 26.8242 71.8555 26.8242C71.3633 26.8242 70.7773 26.8242 70.0977 26.8242C69.4414 26.8242 68.7266 26.8359 67.9531 26.8594C68.5625 26.2266 69.043 25.6875 69.3945 25.2422C69.7461 24.7969 70.0156 24.4219 70.2031 24.1172C70.4141 23.7891 70.543 23.5078 70.5898 23.2734C70.6367 22.8984 70.6719 22.2305 70.6953 21.2695C70.7422 20.2852 70.7773 19.1602 70.8008 17.8945C70.8242 16.6289 70.8359 15.3047 70.8359 13.9219C70.8359 12.5391 70.8242 11.25 70.8008 10.0547C70.7773 8.83594 70.7539 7.79297 70.7305 6.92578C70.707 6.05859 70.6836 5.50781 70.6602 5.27344C70.5898 4.85156 70.4375 4.42969 70.2031 4.00781C70.0156 3.63281 69.7461 3.21094 69.3945 2.74219C69.043 2.27344 68.5625 1.80469 67.9531 1.33594ZM81.2422 13.7109C81.4766 13.5703 81.6758 13.4297 81.8398 13.2891C82.0039 13.1484 82.1445 12.9258 82.2617 12.6211C82.3789 12.293 82.4727 11.8359 82.543 11.25C82.6367 10.6641 82.7422 9.86719 82.8594 8.85938C82.9531 7.85156 82.8828 7.01953 82.6484 6.36328C82.4375 5.70703 82.1445 5.19141 81.7695 4.81641C81.418 4.41797 81.0195 4.14844 80.5742 4.00781C80.1523 3.84375 79.7773 3.76172 79.4492 3.76172C78.793 3.76172 78.1484 3.96094 77.5156 4.35938C76.8828 4.75781 76.4023 5.29687 76.0742 5.97656C75.957 6.28125 75.8516 6.78516 75.7578 7.48828C75.6875 8.09766 75.6406 8.94141 75.6172 10.0195C75.5938 11.0977 75.6289 12.5156 75.7227 14.2734C76.6133 14.4141 77.3984 14.4727 78.0781 14.4492C78.7578 14.4023 79.332 14.3203 79.8008 14.2031C80.3633 14.0859 80.8438 13.9219 81.2422 13.7109ZM90.1016 2.98828C91.7422 3.03516 93.1016 3.07031 94.1797 3.09375C95.2812 3.09375 96.1719 3.09375 96.8516 3.09375H98.7148H109.191C109.238 3.5625 109.273 4.01953 109.297 4.46484C109.344 4.88672 109.367 5.26172 109.367 5.58984C109.367 5.98828 109.355 6.35156 109.332 6.67969C109.309 7.00781 109.273 7.35938 109.227 7.73438C109.18 8.0625 109.133 8.41406 109.086 8.78906C109.039 9.16406 108.957 9.55078 108.84 9.94922C108.512 8.68359 108.066 7.72266 107.504 7.06641C106.965 6.41016 106.414 5.92969 105.852 5.625C105.195 5.27344 104.504 5.08594 103.777 5.0625C102.816 5.10938 102.066 5.19141 101.527 5.30859C100.988 5.42578 100.566 5.58984 100.262 5.80078C99.957 6.01172 99.7227 6.25781 99.5586 6.53906C99.418 6.79688 99.2656 7.08984 99.1016 7.41797C98.9609 7.69922 98.832 8.13281 98.7148 8.71875C98.5977 9.21094 98.4805 9.87891 98.3633 10.7227C98.2695 11.5664 98.1641 12.6562 98.0469 13.9922C98.6797 13.8047 99.1836 13.6289 99.5586 13.4648C99.957 13.3008 100.273 13.1602 100.508 13.043C100.766 12.9023 100.953 12.7734 101.07 12.6562C101.164 12.5156 101.305 12.2578 101.492 11.8828C101.633 11.5547 101.82 11.1094 102.055 10.5469C102.312 9.98438 102.617 9.21094 102.969 8.22656C103.016 9.30469 103.039 10.207 103.039 10.9336C103.039 11.6367 103.051 12.2109 103.074 12.6562C103.074 13.1719 103.086 13.582 103.109 13.8867V15.2227C103.109 15.7148 103.109 16.3828 103.109 17.2266C103.133 18.0469 103.168 19.0898 103.215 20.3555C102.934 19.4883 102.676 18.8086 102.441 18.3164C102.23 17.8008 102.043 17.4141 101.879 17.1562C101.691 16.8516 101.527 16.6406 101.387 16.5234C101.223 16.4766 101 16.4297 100.719 16.3828C100.461 16.3594 100.133 16.3477 99.7344 16.3477C99.3594 16.3477 98.8789 16.4062 98.293 16.5234C98.2227 17.8125 98.2109 18.8555 98.2578 19.6523C98.3281 20.4258 98.4219 21.0234 98.5391 21.4453C98.6562 21.9375 98.7969 22.2891 98.9609 22.5C99.1719 22.7109 99.5938 22.8867 100.227 23.0273C100.859 23.1445 101.574 23.1914 102.371 23.168C103.191 23.1211 104.023 22.9805 104.867 22.7461C105.711 22.5117 106.461 22.125 107.117 21.5859C107.609 21.1406 108.137 20.5781 108.699 19.8984C109.168 19.3125 109.684 18.5742 110.246 17.6836C110.832 16.793 111.406 15.7148 111.969 14.4492C111.875 15.5039 111.805 16.3828 111.758 17.0859C111.734 17.7656 111.699 18.3164 111.652 18.7383C111.605 19.2305 111.57 19.6055 111.547 19.8633C111.547 20.1445 111.512 20.543 111.441 21.0586C111.395 21.5039 111.312 22.1133 111.195 22.8867C111.102 23.6367 110.973 24.5977 110.809 25.7695C109.707 25.793 108.664 25.8164 107.68 25.8398C106.695 25.8398 105.828 25.8516 105.078 25.875C104.188 25.8984 103.367 25.9219 102.617 25.9453C101.844 25.9453 100.988 25.9805 100.051 26.0508C99.2305 26.0977 98.2578 26.168 97.1328 26.2617C96.0312 26.3555 94.8125 26.4844 93.4766 26.6484C93.5938 25.0547 93.6758 23.5547 93.7227 22.1484C93.793 20.7188 93.8398 19.4648 93.8633 18.3867C93.8867 17.1211 93.8867 15.9492 93.8633 14.8711C93.9805 12.1758 93.9336 9.99609 93.7227 8.33203C93.5117 6.66797 93.2656 5.60156 92.9844 5.13281C92.8438 4.96875 92.6445 4.76953 92.3867 4.53516C92.1758 4.34766 91.8828 4.125 91.5078 3.86719C91.1328 3.60937 90.6641 3.31641 90.1016 2.98828ZM123.711 1.01953C124.531 1.01953 125.27 1.16016 125.926 1.44141C126.605 1.69922 127.227 1.99219 127.789 2.32031C128.375 2.64844 128.926 2.95312 129.441 3.23438C129.957 3.49219 130.484 3.62109 131.023 3.62109C131.445 3.59766 131.926 3.53906 132.465 3.44531C132.934 3.35156 133.473 3.21094 134.082 3.02344C134.715 2.8125 135.418 2.50781 136.191 2.10938C135.418 2.85938 134.785 3.49219 134.293 4.00781C133.824 4.5 133.461 4.91016 133.203 5.23828C132.898 5.61328 132.676 5.90625 132.535 6.11719C132.395 6.375 132.184 6.76172 131.902 7.27734C131.645 7.74609 131.293 8.37891 130.848 9.17578C130.402 9.94922 129.84 10.9688 129.16 12.2344C129.16 10.6172 128.996 9.36328 128.668 8.47266C128.363 7.58203 128.023 6.90234 127.648 6.43359C127.203 5.89453 126.699 5.55469 126.137 5.41406C125.621 5.34375 125.105 5.4375 124.59 5.69531C124.074 5.92969 123.559 6.28125 123.043 6.75C122.551 7.21875 122.07 7.78125 121.602 8.4375C121.156 9.07031 120.746 9.73828 120.371 10.4414C120.02 11.1445 119.727 11.8594 119.492 12.5859C119.258 13.2891 119.105 13.9453 119.035 14.5547C118.965 15.0938 118.953 15.7266 119 16.4531C119.047 17.1562 119.152 17.8828 119.316 18.6328C119.48 19.3594 119.691 20.0742 119.949 20.7773C120.207 21.4805 120.523 22.1133 120.898 22.6758C121.297 23.2148 121.742 23.6602 122.234 24.0117C122.727 24.3398 123.289 24.4922 123.922 24.4688C124.625 24.4219 125.316 24.2109 125.996 23.8359C126.582 23.5312 127.18 23.0625 127.789 22.4297C128.398 21.7734 128.926 20.8477 129.371 19.6523L134.574 20.6016C133.074 22.4297 131.609 23.8008 130.18 24.7148C128.773 25.6289 127.508 26.2734 126.383 26.6484C125.07 27.0703 123.828 27.2695 122.656 27.2461C121.18 27.082 119.797 26.6367 118.508 25.9102C117.219 25.1836 116.105 24.3047 115.168 23.2734C114.254 22.2188 113.539 21.0703 113.023 19.8281C112.508 18.5859 112.285 17.3672 112.355 16.1719C112.402 15.375 112.566 14.4492 112.848 13.3945C113.129 12.3164 113.504 11.2148 113.973 10.0898C114.465 8.96484 115.051 7.86328 115.73 6.78516C116.41 5.70703 117.16 4.74609 117.98 3.90234C118.801 3.03516 119.691 2.34375 120.652 1.82812C121.637 1.28906 122.656 1.01953 123.711 1.01953ZM140.094 3.19922C141.266 3.26953 142.25 3.32812 143.047 3.375C143.867 3.39844 144.547 3.42188 145.086 3.44531C145.695 3.46875 146.211 3.46875 146.633 3.44531C147.055 3.42188 147.629 3.36328 148.355 3.26953C148.965 3.19922 149.773 3.09375 150.781 2.95312C151.812 2.78906 153.09 2.57813 154.613 2.32031C154.074 2.85938 153.652 3.35156 153.348 3.79688C153.066 4.21875 152.844 4.58203 152.68 4.88672C152.492 5.26172 152.363 5.57812 152.293 5.83594C152.246 6.07031 152.293 6.65625 152.434 7.59375C152.574 8.53125 152.773 9.64453 153.031 10.9336C153.289 12.1992 153.57 13.5586 153.875 15.0117C154.18 16.4414 154.484 17.7891 154.789 19.0547C155.094 20.2969 155.363 21.3633 155.598 22.2539C155.855 23.1211 156.043 23.6367 156.16 23.8008C156.512 24.293 156.734 24.6211 156.828 24.7852C156.922 24.9258 157.086 25.0547 157.32 25.1719C157.414 25.2188 157.566 25.2891 157.777 25.3828C157.965 25.4766 158.211 25.5938 158.516 25.7344C158.844 25.875 159.254 26.0391 159.746 26.2266C158.832 26.2734 158.047 26.3086 157.391 26.332C156.734 26.332 156.195 26.3438 155.773 26.3672C155.281 26.3906 154.859 26.4141 154.508 26.4375C154.156 26.4375 153.734 26.4609 153.242 26.5078C152.82 26.5547 152.27 26.6016 151.59 26.6484C150.934 26.6953 150.16 26.7422 149.27 26.7891C149.738 26.4609 150.113 26.168 150.395 25.9102C150.699 25.6289 150.934 25.3945 151.098 25.207C151.285 24.9727 151.414 24.7617 151.484 24.5742C151.531 24.3633 151.566 24.0469 151.59 23.625C151.613 23.25 151.613 22.7578 151.59 22.1484C151.566 21.5156 151.508 20.6953 151.414 19.6875L142.168 20.6367C141.934 21.0352 141.758 21.3867 141.641 21.6914C141.523 21.9727 141.441 22.2188 141.395 22.4297C141.324 22.6875 141.301 22.8984 141.324 23.0625C141.371 23.25 141.453 23.4727 141.57 23.7305C141.688 23.9648 141.852 24.2461 142.062 24.5742C142.297 24.8789 142.637 25.2422 143.082 25.6641C142.496 25.6406 141.898 25.6289 141.289 25.6289C140.68 25.6289 140.117 25.6406 139.602 25.6641C138.992 25.6875 138.395 25.7109 137.809 25.7344C137.223 25.7578 136.555 25.793 135.805 25.8398C135.172 25.8867 134.434 25.9453 133.59 26.0156C132.723 26.0625 131.797 26.1328 130.812 26.2266C131.422 25.9453 131.938 25.6641 132.359 25.3828C132.781 25.0781 133.133 24.7969 133.414 24.5391C133.742 24.2578 134.023 23.9883 134.258 23.7305C134.422 23.4961 134.75 22.957 135.242 22.1133C135.734 21.2461 136.285 20.2266 136.895 19.0547C137.527 17.8828 138.184 16.6289 138.863 15.293C139.566 13.957 140.199 12.7031 140.762 11.5312C141.324 10.3359 141.781 9.30469 142.133 8.4375C142.484 7.57031 142.66 7.00781 142.66 6.75C142.613 6.44531 142.496 6.10547 142.309 5.73047C142.145 5.40234 141.887 5.02734 141.535 4.60547C141.207 4.18359 140.727 3.71484 140.094 3.19922ZM150.992 17.0859C150.852 16.2656 150.723 15.5625 150.605 14.9766C150.488 14.3672 150.395 13.8633 150.324 13.4648C150.23 12.9961 150.16 12.5859 150.113 12.2344C150.043 11.9062 149.961 11.4844 149.867 10.9688C149.773 10.5234 149.656 9.97266 149.516 9.31641C149.398 8.63672 149.246 7.82812 149.059 6.89062C147.723 9.5625 146.68 11.6367 145.93 13.1133C145.203 14.5664 144.676 15.6328 144.348 16.3125C143.949 17.1094 143.727 17.5781 143.68 17.7188L150.992 17.0859ZM156.652 1.33594C157.402 1.45313 158.082 1.55859 158.691 1.65234C159.301 1.72266 159.828 1.78125 160.273 1.82812C160.789 1.89844 161.246 1.95703 161.645 2.00391C162.137 2.07422 162.875 1.99219 163.859 1.75781C164.844 1.5 165.922 1.26562 167.094 1.05469C168.289 0.820313 169.508 0.691406 170.75 0.667969C171.992 0.621094 173.129 0.84375 174.16 1.33594C175.191 1.82812 176.035 2.32031 176.691 2.8125C177.348 3.30469 177.863 3.83203 178.238 4.39453C178.637 4.93359 178.918 5.50781 179.082 6.11719C179.246 6.72656 179.34 7.39453 179.363 8.12109C179.34 9.19922 179.082 10.2422 178.59 11.25C178.379 11.6719 178.098 12.1172 177.746 12.5859C177.418 13.0312 177.008 13.4648 176.516 13.8867C176.023 14.3086 175.438 14.707 174.758 15.082C174.102 15.457 173.328 15.7852 172.438 16.0664C173.305 16.3242 174.02 16.6289 174.582 16.9805C175.168 17.332 175.637 17.6602 175.988 17.9648C176.41 18.3398 176.727 18.7031 176.938 19.0547C177.195 19.5469 177.371 19.9688 177.465 20.3203C177.559 20.6719 177.617 21.0117 177.641 21.3398C177.688 21.6445 177.746 21.9609 177.816 22.2891C177.887 22.6172 178.039 22.9922 178.273 23.4141C178.461 23.7422 178.684 24.082 178.941 24.4336C179.176 24.7383 179.445 25.0664 179.75 25.418C180.078 25.7695 180.477 26.1094 180.945 26.4375C180.289 26.4609 179.68 26.4727 179.117 26.4727C178.578 26.4727 178.109 26.4727 177.711 26.4727C177.242 26.4727 176.797 26.4609 176.375 26.4375C175.953 26.4141 175.426 26.4023 174.793 26.4023C174.254 26.4023 173.562 26.4023 172.719 26.4023C171.898 26.4023 170.902 26.4141 169.73 26.4375C170.246 26.0391 170.668 25.6406 170.996 25.2422C171.324 24.8438 171.582 24.4805 171.77 24.1523C171.98 23.7773 172.133 23.4141 172.227 23.0625C172.344 22.4297 172.355 21.7734 172.262 21.0938C172.191 20.5078 172.004 19.8633 171.699 19.1602C171.395 18.4336 170.902 17.707 170.223 16.9805C169.543 17.0977 168.969 17.1914 168.5 17.2617C168.055 17.3086 167.668 17.3555 167.34 17.4023C166.965 17.4492 166.66 17.4844 166.426 17.5078C166.215 17.5312 165.98 17.5547 165.723 17.5781C165.512 17.6016 165.277 17.6367 165.02 17.6836C164.785 17.707 164.562 17.7422 164.352 17.7891C164.305 18.7969 164.305 19.6758 164.352 20.4258C164.398 21.1523 164.457 21.7617 164.527 22.2539C164.621 22.8398 164.727 23.3438 164.844 23.7656C164.961 24.1875 165.125 24.5977 165.336 24.9961C165.5 25.3242 165.711 25.6758 165.969 26.0508C166.227 26.4023 166.52 26.6953 166.848 26.9297C166.238 26.9297 165.652 26.9297 165.09 26.9297C164.551 26.9297 164.059 26.918 163.613 26.8945C163.098 26.8945 162.605 26.8828 162.137 26.8594C161.668 26.8359 161.141 26.8242 160.555 26.8242C160.062 26.8242 159.477 26.8242 158.797 26.8242C158.141 26.8242 157.426 26.8359 156.652 26.8594C157.262 26.2266 157.742 25.6875 158.094 25.2422C158.445 24.7969 158.715 24.4219 158.902 24.1172C159.113 23.7891 159.242 23.5078 159.289 23.2734C159.336 22.8984 159.371 22.2305 159.395 21.2695C159.441 20.2852 159.477 19.1602 159.5 17.8945C159.523 16.6289 159.535 15.3047 159.535 13.9219C159.535 12.5391 159.523 11.25 159.5 10.0547C159.477 8.83594 159.453 7.79297 159.43 6.92578C159.406 6.05859 159.383 5.50781 159.359 5.27344C159.289 4.85156 159.137 4.42969 158.902 4.00781C158.715 3.63281 158.445 3.21094 158.094 2.74219C157.742 2.27344 157.262 1.80469 156.652 1.33594ZM169.941 13.7109C170.176 13.5703 170.375 13.4297 170.539 13.2891C170.703 13.1484 170.844 12.9258 170.961 12.6211C171.078 12.293 171.172 11.8359 171.242 11.25C171.336 10.6641 171.441 9.86719 171.559 8.85938C171.652 7.85156 171.582 7.01953 171.348 6.36328C171.137 5.70703 170.844 5.19141 170.469 4.81641C170.117 4.41797 169.719 4.14844 169.273 4.00781C168.852 3.84375 168.477 3.76172 168.148 3.76172C167.492 3.76172 166.848 3.96094 166.215 4.35938C165.582 4.75781 165.102 5.29687 164.773 5.97656C164.656 6.28125 164.551 6.78516 164.457 7.48828C164.387 8.09766 164.34 8.94141 164.316 10.0195C164.293 11.0977 164.328 12.5156 164.422 14.2734C165.312 14.4141 166.098 14.4727 166.777 14.4492C167.457 14.4023 168.031 14.3203 168.5 14.2031C169.062 14.0859 169.543 13.9219 169.941 13.7109ZM179.539 1.33594C181.109 1.52344 182.469 1.66406 183.617 1.75781C184.766 1.82812 185.715 1.88672 186.465 1.93359C187.332 1.98047 188.059 1.99219 188.645 1.96875C189.254 1.94531 190.086 1.88672 191.141 1.79297C192.031 1.72266 193.203 1.62891 194.656 1.51172C196.109 1.37109 197.926 1.18359 200.105 0.949219C200.129 1.48828 200.141 2.01563 200.141 2.53125C200.164 3.02344 200.188 3.45703 200.211 3.83203C200.234 4.27734 200.246 4.6875 200.246 5.0625C200.246 5.46094 200.223 5.96484 200.176 6.57422C200.129 7.08984 200.047 7.74609 199.93 8.54297C199.836 9.31641 199.684 10.2422 199.473 11.3203C199.145 10.0547 198.828 9.03516 198.523 8.26172C198.219 7.46484 197.938 6.83203 197.68 6.36328C197.398 5.82422 197.117 5.41406 196.836 5.13281C196.531 4.92188 196.168 4.74609 195.746 4.60547C195.371 4.48828 194.891 4.39453 194.305 4.32422C193.742 4.25391 193.074 4.26563 192.301 4.35938C192.184 7.45312 192.102 9.96094 192.055 11.8828C192.008 13.8047 191.973 15.3047 191.949 16.3828C191.926 17.6719 191.914 18.5977 191.914 19.1602C191.938 19.957 192.066 20.7422 192.301 21.5156C192.488 22.1719 192.793 22.8516 193.215 23.5547C193.637 24.2578 194.246 24.8789 195.043 25.418H190.754C190.355 25.418 189.863 25.4414 189.277 25.4883C188.785 25.5352 188.152 25.582 187.379 25.6289C186.629 25.6758 185.75 25.7578 184.742 25.875C185.094 25.2656 185.375 24.7148 185.586 24.2227C185.797 23.7305 185.961 23.3086 186.078 22.957C186.219 22.5352 186.324 22.1602 186.395 21.832C186.418 21.3633 186.477 20.4141 186.57 18.9844C186.594 18.3984 186.617 17.6719 186.641 16.8047C186.688 15.9375 186.734 14.9062 186.781 13.7109C186.852 12.5156 186.91 11.1445 186.957 9.59766C187.027 8.02734 187.098 6.25781 187.168 4.28906C186.746 4.17187 186.348 4.18359 185.973 4.32422C185.598 4.44141 185.27 4.59375 184.988 4.78125C184.66 5.01562 184.344 5.29687 184.039 5.625C183.734 6.02344 183.395 6.53906 183.02 7.17188C182.691 7.71094 182.316 8.42578 181.895 9.31641C181.473 10.1836 180.992 11.2617 180.453 12.5508C180.336 11.1914 180.254 10.0781 180.207 9.21094C180.16 8.32031 180.125 7.62891 180.102 7.13672C180.078 6.55078 180.066 6.11719 180.066 5.83594C180.066 5.57812 180.043 5.23828 179.996 4.81641C179.949 4.46484 179.891 4.00781 179.82 3.44531C179.75 2.85938 179.656 2.15625 179.539 1.33594Z" fill="white"/>
</svg>
